<svg width="32" height="32" viewBox="0 0 32 32" fill="none" xmlns="http://www.w3.org/2000/svg">
<path d="M0 16C0 7.16344 7.16344 0 16 0C24.8366 0 32 7.16344 32 16C32 24.8366 24.8366 32 16 32C7.16344 32 0 24.8366 0 16Z" fill="#027E6F"/>
<path d="M18.5537 17.2627L21.0762 18.0625C20.6895 19.4688 20.0449 20.5146 19.1426 21.2002C18.2461 21.8799 17.1064 22.2197 15.7236 22.2197C14.0127 22.2197 12.6064 21.6367 11.5049 20.4707C10.4033 19.2988 9.85254 17.6992 9.85254 15.6719C9.85254 13.5273 10.4062 11.8633 11.5137 10.6797C12.6211 9.49023 14.0771 8.89551 15.8818 8.89551C17.458 8.89551 18.7383 9.36133 19.7227 10.293C20.3086 10.8438 20.748 11.6348 21.041 12.666L18.4658 13.2812C18.3135 12.6133 17.9941 12.0859 17.5078 11.6992C17.0273 11.3125 16.4414 11.1191 15.75 11.1191C14.7949 11.1191 14.0186 11.4619 13.4209 12.1475C12.8291 12.833 12.5332 13.9434 12.5332 15.4785C12.5332 17.1074 12.8262 18.2676 13.4121 18.959C13.998 19.6504 14.7598 19.9961 15.6973 19.9961C16.3887 19.9961 16.9834 19.7764 17.4814 19.3369C17.9795 18.8975 18.3369 18.2061 18.5537 17.2627Z" fill="white"/>
</svg>
