<svg width="32" height="32" viewBox="0 0 32 32" fill="none" xmlns="http://www.w3.org/2000/svg">
<path d="M14.6894 3.75186C14.7466 3.44599 14.9089 3.16974 15.1482 2.97095C15.3876 2.77215 15.6889 2.66333 16.0001 2.66333C16.3113 2.66333 16.6126 2.77215 16.852 2.97095C17.0913 3.16974 17.2536 3.44599 17.3108 3.75186L18.7121 11.1625C18.8116 11.6894 19.0677 12.174 19.4468 12.5532C19.8259 12.9323 20.3106 13.1883 20.8374 13.2879L28.2481 14.6892C28.554 14.7463 28.8302 14.9086 29.029 15.148C29.2278 15.3874 29.3366 15.6887 29.3366 15.9999C29.3366 16.311 29.2278 16.6124 29.029 16.8517C28.8302 17.0911 28.554 17.2534 28.2481 17.3105L20.8374 18.7119C20.3106 18.8114 19.8259 19.0674 19.4468 19.4466C19.0677 19.8257 18.8116 20.3103 18.7121 20.8372L17.3108 28.2479C17.2536 28.5537 17.0913 28.83 16.852 29.0288C16.6126 29.2276 16.3113 29.3364 16.0001 29.3364C15.6889 29.3364 15.3876 29.2276 15.1482 29.0288C14.9089 28.83 14.7466 28.5537 14.6894 28.2479L13.2881 20.8372C13.1886 20.3103 12.9325 19.8257 12.5534 19.4466C12.1743 19.0674 11.6896 18.8114 11.1628 18.7119L3.7521 17.3105C3.44624 17.2534 3.16999 17.0911 2.97119 16.8517C2.7724 16.6124 2.66357 16.311 2.66357 15.9999C2.66357 15.6887 2.7724 15.3874 2.97119 15.148C3.16999 14.9086 3.44624 14.7463 3.7521 14.6892L11.1628 13.2879C11.6896 13.1883 12.1743 12.9323 12.5534 12.5532C12.9325 12.174 13.1886 11.6894 13.2881 11.1625L14.6894 3.75186Z" stroke="#EAEEF2" stroke-width="2.66667" stroke-linecap="round" stroke-linejoin="round"/>
<path d="M26.6665 2.66675V8.00008" stroke="#EAEEF2" stroke-width="2.66667" stroke-linecap="round" stroke-linejoin="round"/>
<path d="M29.3333 5.33325H24" stroke="#EAEEF2" stroke-width="2.66667" stroke-linecap="round" stroke-linejoin="round"/>
<path d="M5.33317 29.3333C6.80593 29.3333 7.99984 28.1394 7.99984 26.6667C7.99984 25.1939 6.80593 24 5.33317 24C3.86041 24 2.6665 25.1939 2.6665 26.6667C2.6665 28.1394 3.86041 29.3333 5.33317 29.3333Z" stroke="#EAEEF2" stroke-width="2.66667" stroke-linecap="round" stroke-linejoin="round"/>
</svg>
