<svg width="32" height="32" viewBox="0 0 32 32" fill="none" xmlns="http://www.w3.org/2000/svg">
<path d="M21.3332 26.6666V5.33329C21.3332 4.62605 21.0522 3.94777 20.5521 3.44767C20.052 2.94758 19.3737 2.66663 18.6665 2.66663H13.3332C12.6259 2.66663 11.9477 2.94758 11.4476 3.44767C10.9475 3.94777 10.6665 4.62605 10.6665 5.33329V26.6666" stroke="#EAEEF2" stroke-width="2.66667" stroke-linecap="round" stroke-linejoin="round"/>
<path d="M26.6665 8H5.33317C3.86041 8 2.6665 9.19391 2.6665 10.6667V24C2.6665 25.4728 3.86041 26.6667 5.33317 26.6667H26.6665C28.1393 26.6667 29.3332 25.4728 29.3332 24V10.6667C29.3332 9.19391 28.1393 8 26.6665 8Z" stroke="#EAEEF2" stroke-width="2.66667" stroke-linecap="round" stroke-linejoin="round"/>
</svg>
