<svg width="16" height="8" viewBox="0 0 16 8" fill="none" xmlns="http://www.w3.org/2000/svg">
<path d="M14.1345 0.179375L7.59372 6.55528L1.05292 0.179375C0.936065 0.0652191 0.779184 0.00130859 0.615822 0.00130859C0.45246 0.00130859 0.29558 0.0652191 0.178722 0.179375C0.122138 0.234816 0.0771843 0.300991 0.0464957 0.374023C0.0158071 0.447056 0 0.525478 0 0.604697C0 0.683915 0.0158071 0.762337 0.0464957 0.83537C0.0771843 0.908402 0.122138 0.974577 0.178722 1.03002L7.13699 7.81423C7.25919 7.93334 7.42308 8 7.59372 8C7.76436 8 7.92825 7.93334 8.05045 7.81423L15.0087 1.03133C15.0657 0.975845 15.111 0.909507 15.1419 0.836233C15.1728 0.762958 15.1888 0.68423 15.1888 0.604697C15.1888 0.525163 15.1728 0.446435 15.1419 0.37316C15.111 0.299886 15.0657 0.233549 15.0087 0.178066C14.8919 0.0639098 14.735 0 14.5716 0C14.4083 0 14.2514 0.0639098 14.1345 0.178066V0.179375Z" fill="#6A7282"/>
</svg>
